<svg id="Capa_1" enable-background="new 0 0 512 512" height="512" viewBox="0 0 512 512" width="512" xmlns="http://www.w3.org/2000/svg"><g><g><path d="m256.19 111.24c-4.122 0-7.904-2.617-9.36-6.473-1.471-3.895-.306-8.463 2.884-11.149 3.196-2.69 7.84-3.122 11.463-1.032 3.621 2.089 5.594 6.332 4.842 10.451-.855 4.685-5.065 8.203-9.829 8.203z"/><path d="m502 30.949h-492c-5.523 0-10 4.478-10 10v35.535c0 11.833 5.943 22.303 15 28.583v14.889c0 23.212 15.412 42.893 36.54 49.346v107.288c0 32.8 7.534 64.133 22.392 93.127 14.167 27.645 34.841 52.111 59.788 70.753.005.003.009.007.014.01 35.522 26.541 77.801 40.569 122.266 40.569s86.744-14.028 122.266-40.569c.005-.003.009-.007.014-.01 24.947-18.642 45.621-43.108 59.788-70.753 14.858-28.994 22.392-60.327 22.392-93.127v-107.287c21.128-6.453 36.54-26.133 36.54-49.346v-14.889c9.057-6.281 15-16.751 15-28.583v-35.536c0-5.522-4.477-10-10-10zm-139.72 396.429c-31.189 22.047-67.826 33.673-106.28 33.673s-75.091-11.626-106.28-33.673v-75.097c0-58.604 47.677-106.28 106.28-106.28 28.386 0 55.074 11.056 75.149 31.131s31.131 46.764 31.131 75.149zm20-16.284v-58.813c0-33.728-13.136-65.438-36.989-89.292-23.852-23.853-55.563-36.988-89.291-36.988-69.631 0-126.28 56.649-126.28 126.28v58.813c-37.207-34.768-58.18-82.75-58.18-134.503v-105.052h368.92v105.052c0 51.753-20.972 99.735-58.18 134.503zm63.139-259.555h-378.838c-17.414 0-31.581-14.168-31.581-31.582v-8.713h175.794c5.523 0 10-4.478 10-10s-4.477-10-10-10h-176.034c-8.139 0-14.76-6.621-14.76-14.76v-25.535h472v25.535c0 8.139-6.621 14.76-14.76 14.76h-176.033c-5.523 0-10 4.478-10 10s4.477 10 10 10h175.793v8.713c0 17.414-14.167 31.582-31.581 31.582z"/><path d="m256 418.704c-37.214 0-67.49-30.276-67.49-67.49s30.276-67.489 67.49-67.489 67.49 30.275 67.49 67.489-30.276 67.49-67.49 67.49zm0-114.979c-26.186 0-47.49 21.304-47.49 47.489 0 26.187 21.304 47.49 47.49 47.49s47.49-21.304 47.49-47.49-21.304-47.489-47.49-47.489z"/></g></g></svg>