<?xml version="1.0" encoding="iso-8859-1"?>
<!-- Generator: Adobe Illustrator 19.0.0, SVG Export Plug-In . SVG Version: 6.00 Build 0)  -->
<svg version="1.1" id="Capa_1" xmlns="http://www.w3.org/2000/svg" xmlns:xlink="http://www.w3.org/1999/xlink" x="0px" y="0px"
	 viewBox="0 0 508 508" style="enable-background:new 0 0 508 508;" xml:space="preserve">
<g>
	<g>
		<path d="M294.1,161.9c-1.3-6.3-4.1-11.9-7.9-16.8l89-117.6l-13.1-9.9l-88.4,116.8c-5.9-3.3-12.6-5.3-19.8-5.3
			c-6.9,0-13.3,1.9-19,4.9L154.5,2l-14,8.5l81.7,134.1c-4,5-7,10.8-8.3,17.3H0v327.7h32.8V506h16.4v-16.4h409.7V506h16.4v-16.4H508
			V161.9H294.1z M254,145.5c10.7,0,19.7,6.9,23.1,16.4H231C234.3,152.4,243.3,145.5,254,145.5z M491.6,473.3H16.4v-295h475.2V473.3z
			"/>
	</g>
</g>
<g>
	<g>
		<path d="M352.3,194.7H73.7c-22.6,0-41,18.4-41,41V416c0.1,22.5,18.5,40.9,41,40.9h278.6c22.6,0,41-18.4,41-41V235.7
			C393.3,213.1,374.9,194.7,352.3,194.7z M377,416c0,13.6-11,24.6-24.6,24.6H73.7c-13.6,0-24.6-11-24.6-24.6V235.7h0.1
			c0-13.6,11-24.6,24.6-24.6h278.6c13.6,0,24.6,11,24.6,24.6V416z"/>
	</g>
</g>
<g>
	<g>
		<path d="M442.5,194.6c-18.1,0-32.8,14.7-32.8,32.8c0,18.1,14.7,32.8,32.8,32.8c18.1,0,32.8-14.7,32.8-32.8
			C475.3,209.3,460.6,194.6,442.5,194.6z M442.5,243.9c-9,0-16.4-7.3-16.4-16.4c0-9.1,7.3-16.4,16.4-16.4c9,0,16.4,7.3,16.4,16.4
			C458.9,236.5,451.5,243.9,442.5,243.9z"/>
	</g>
</g>
<g>
	<g>
		<path d="M442.5,284.8c-18.1,0-32.8,14.7-32.8,32.8c0,18.1,14.7,32.8,32.8,32.8c18.1,0,32.8-14.7,32.8-32.8
			S460.6,284.8,442.5,284.8z M442.5,334c-9,0-16.4-7.3-16.4-16.4c0-9.1,7.3-16.4,16.4-16.4c9,0,16.4,7.3,16.4,16.4
			C458.9,326.6,451.5,334,442.5,334z"/>
	</g>
</g>
<g>
	<g>
		<rect x="409.7" y="374.9" width="16.4" height="16.4"/>
	</g>
</g>
<g>
	<g>
		<rect x="450.6" y="374.9" width="16.4" height="16.4"/>
	</g>
</g>
<g>
	<g>
		<rect x="409.7" y="415.9" width="16.4" height="16.4"/>
	</g>
</g>
<g>
	<g>
		<rect x="450.6" y="415.9" width="16.4" height="16.4"/>
	</g>
</g>
<g>
</g>
<g>
</g>
<g>
</g>
<g>
</g>
<g>
</g>
<g>
</g>
<g>
</g>
<g>
</g>
<g>
</g>
<g>
</g>
<g>
</g>
<g>
</g>
<g>
</g>
<g>
</g>
<g>
</g>
</svg>
